<?xml version="1.0" encoding="UTF-8"?>
<svg xmlns="http://www.w3.org/2000/svg" xmlns:xlink="http://www.w3.org/1999/xlink" width="20px" height="20px" viewBox="0 0 20 20" version="1.1">
<g id="surface1">
<path style=" stroke:none;fill-rule:nonzero;fill:rgb(90.588235%,43.529412%,0%);fill-opacity:1;" d="M 14.921875 15.773438 L 14.847656 15.773438 L 14.847656 15.730469 L 15.050781 15.730469 L 15.050781 15.773438 L 14.976562 15.773438 L 14.976562 15.980469 L 14.921875 15.980469 Z M 15.328125 15.78125 L 15.253906 15.980469 L 15.21875 15.980469 L 15.144531 15.78125 L 15.144531 15.980469 L 15.09375 15.980469 L 15.09375 15.730469 L 15.167969 15.730469 L 15.234375 15.910156 L 15.304688 15.730469 L 15.375 15.730469 L 15.375 15.980469 L 15.328125 15.980469 Z M 15.328125 15.78125 "/>
<path style=" stroke:none;fill-rule:nonzero;fill:rgb(32.54902%,50.980392%,63.137255%);fill-opacity:1;" d="M 8.179688 10.609375 C 8.179688 10.609375 7.65625 10.914062 8.550781 11.015625 C 9.640625 11.140625 10.195312 11.125 11.390625 10.898438 C 11.390625 10.898438 11.707031 11.09375 12.148438 11.265625 C 9.460938 12.417969 6.070312 11.199219 8.179688 10.609375 M 7.851562 9.105469 C 7.851562 9.105469 7.261719 9.542969 8.160156 9.636719 C 9.320312 9.753906 10.238281 9.765625 11.824219 9.460938 C 11.824219 9.460938 12.046875 9.683594 12.390625 9.804688 C 9.144531 10.753906 5.527344 9.878906 7.851562 9.105469 "/>
<path style=" stroke:none;fill-rule:nonzero;fill:rgb(90.588235%,43.529412%,0%);fill-opacity:1;" d="M 10.617188 6.558594 C 11.277344 7.320312 10.441406 8.007812 10.441406 8.007812 C 10.441406 8.007812 12.125 7.140625 11.351562 6.054688 C 10.632812 5.039062 10.078125 4.539062 13.070312 2.800781 C 13.070312 2.800781 8.375 3.976562 10.617188 6.558594 "/>
<path style=" stroke:none;fill-rule:nonzero;fill:rgb(32.54902%,50.980392%,63.137255%);fill-opacity:1;" d="M 14.167969 11.71875 C 14.167969 11.71875 14.558594 12.039062 13.742188 12.285156 C 12.191406 12.757812 7.289062 12.898438 5.929688 12.304688 C 5.4375 12.09375 6.355469 11.796875 6.644531 11.734375 C 6.945312 11.667969 7.117188 11.683594 7.117188 11.683594 C 6.574219 11.296875 3.601562 12.433594 5.609375 12.761719 C 11.082031 13.648438 15.589844 12.359375 14.167969 11.71875 M 8.429688 7.550781 C 8.429688 7.550781 5.9375 8.144531 7.546875 8.359375 C 8.226562 8.449219 9.582031 8.429688 10.84375 8.324219 C 11.878906 8.234375 12.914062 8.050781 12.914062 8.050781 C 12.914062 8.050781 12.550781 8.207031 12.285156 8.386719 C 9.753906 9.050781 4.863281 8.742188 6.273438 8.0625 C 7.460938 7.484375 8.429688 7.550781 8.429688 7.550781 M 12.902344 10.050781 C 15.476562 8.714844 14.289062 7.429688 13.457031 7.601562 C 13.253906 7.644531 13.164062 7.679688 13.164062 7.679688 C 13.164062 7.679688 13.238281 7.5625 13.382812 7.511719 C 15.023438 6.933594 16.289062 9.214844 12.851562 10.117188 C 12.851562 10.117188 12.890625 10.082031 12.902344 10.050781 "/>
<path style=" stroke:none;fill-rule:nonzero;fill:rgb(90.588235%,43.529412%,0%);fill-opacity:1;" d="M 11.351562 0 C 11.351562 0 12.777344 1.425781 10 3.617188 C 7.773438 5.378906 9.492188 6.378906 10 7.527344 C 8.699219 6.351562 7.746094 5.320312 8.386719 4.359375 C 9.324219 2.949219 11.925781 2.265625 11.351562 0 "/>
<path style=" stroke:none;fill-rule:nonzero;fill:rgb(32.54902%,50.980392%,63.137255%);fill-opacity:1;" d="M 8.683594 13.675781 C 11.152344 13.832031 14.949219 13.585938 15.039062 12.417969 C 15.039062 12.417969 14.863281 12.863281 12.996094 13.214844 C 10.886719 13.609375 8.285156 13.5625 6.746094 13.308594 C 6.746094 13.308594 7.058594 13.570312 8.683594 13.675781 "/>
<path style=" stroke:none;fill-rule:nonzero;fill:rgb(90.588235%,43.529412%,0%);fill-opacity:1;" d="M 8.277344 18.140625 C 8.046875 18.34375 7.800781 18.457031 7.578125 18.457031 C 7.261719 18.457031 7.09375 18.269531 7.09375 17.964844 C 7.09375 17.636719 7.277344 17.398438 8.007812 17.398438 L 8.277344 17.398438 L 8.277344 18.140625 M 8.921875 18.867188 L 8.921875 16.621094 C 8.921875 16.046875 8.59375 15.667969 7.804688 15.667969 C 7.34375 15.667969 6.941406 15.78125 6.613281 15.929688 L 6.707031 16.324219 C 6.964844 16.230469 7.300781 16.140625 7.628906 16.140625 C 8.082031 16.140625 8.277344 16.324219 8.277344 16.703125 L 8.277344 16.988281 L 8.050781 16.988281 C 6.949219 16.988281 6.449219 17.417969 6.449219 18.058594 C 6.449219 18.613281 6.777344 18.929688 7.394531 18.929688 C 7.792969 18.929688 8.089844 18.765625 8.367188 18.527344 L 8.417969 18.867188 Z M 11.066406 18.867188 L 10.265625 18.867188 L 9.300781 15.726562 L 10 15.726562 L 10.601562 17.65625 L 10.734375 18.238281 C 11.035156 17.398438 11.25 16.546875 11.359375 15.726562 L 12.039062 15.726562 C 11.855469 16.761719 11.527344 17.894531 11.066406 18.867188 M 14.144531 18.140625 C 13.910156 18.34375 13.664062 18.457031 13.445312 18.457031 C 13.128906 18.457031 12.957031 18.269531 12.957031 17.964844 C 12.957031 17.636719 13.140625 17.398438 13.875 17.398438 L 14.144531 17.398438 L 14.144531 18.140625 M 14.789062 18.867188 L 14.789062 16.621094 C 14.789062 16.046875 14.460938 15.667969 13.671875 15.667969 C 13.210938 15.667969 12.808594 15.78125 12.480469 15.929688 L 12.574219 16.324219 C 12.832031 16.230469 13.167969 16.140625 13.496094 16.140625 C 13.949219 16.140625 14.144531 16.324219 14.144531 16.703125 L 14.144531 16.988281 L 13.917969 16.988281 C 12.8125 16.988281 12.316406 17.417969 12.316406 18.058594 C 12.316406 18.613281 12.644531 18.929688 13.261719 18.929688 C 13.660156 18.929688 13.953125 18.765625 14.234375 18.527344 L 14.285156 18.867188 Z M 5.746094 19.402344 C 5.5625 19.667969 5.265625 19.878906 4.941406 20 L 4.625 19.625 C 4.871094 19.5 5.082031 19.296875 5.179688 19.105469 C 5.265625 18.933594 5.300781 18.71875 5.300781 18.195312 L 5.300781 14.609375 L 5.984375 14.609375 L 5.984375 18.144531 C 5.984375 18.84375 5.925781 19.125 5.746094 19.402344 "/>
</g>
</svg>
