<?xml version="1.0" encoding="UTF-8"?>
<svg xmlns="http://www.w3.org/2000/svg" xmlns:xlink="http://www.w3.org/1999/xlink" width="20px" height="20px" viewBox="0 0 20 20" version="1.1">
<g id="surface1">
<path style=" stroke:none;fill-rule:nonzero;fill:rgb(0%,0%,0%);fill-opacity:1;" d="M 18.765625 9.460938 C 18.714844 9.457031 18.65625 9.457031 18.59375 9.457031 C 18.292969 9.457031 18.003906 9.511719 17.738281 9.613281 L 17.753906 9.609375 C 17.675781 9.640625 17.550781 9.640625 17.539062 9.738281 C 17.582031 9.78125 17.589844 9.847656 17.625 9.90625 C 17.699219 10.03125 17.789062 10.136719 17.894531 10.222656 C 18.003906 10.308594 18.113281 10.394531 18.230469 10.464844 C 18.433594 10.589844 18.664062 10.664062 18.863281 10.792969 C 18.976562 10.863281 19.089844 10.957031 19.207031 11.035156 C 19.261719 11.074219 19.300781 11.144531 19.371094 11.171875 L 19.371094 11.15625 C 19.335938 11.109375 19.324219 11.039062 19.289062 10.988281 C 19.238281 10.933594 19.1875 10.886719 19.132812 10.835938 C 18.980469 10.632812 18.800781 10.460938 18.597656 10.316406 L 18.589844 10.308594 C 18.425781 10.195312 18.058594 10.035156 17.988281 9.84375 L 17.980469 9.832031 C 18.117188 9.8125 18.238281 9.785156 18.355469 9.746094 L 18.339844 9.75 C 18.515625 9.703125 18.679688 9.714844 18.863281 9.667969 C 18.945312 9.648438 19.027344 9.621094 19.113281 9.59375 L 19.113281 9.546875 C 19.019531 9.453125 18.949219 9.328125 18.851562 9.238281 C 18.597656 9.015625 18.3125 8.804688 18.015625 8.613281 L 17.988281 8.597656 C 17.824219 8.492188 17.617188 8.425781 17.445312 8.335938 C 17.382812 8.304688 17.277344 8.289062 17.242188 8.238281 C 17.160156 8.121094 17.089844 7.988281 17.03125 7.847656 L 17.027344 7.835938 C 16.875 7.539062 16.730469 7.234375 16.597656 6.925781 C 16.507812 6.6875 16.421875 6.492188 16.320312 6.300781 L 16.332031 6.332031 C 15.84375 5.507812 15.15625 4.84375 14.339844 4.390625 L 14.3125 4.378906 C 14.121094 4.28125 13.898438 4.207031 13.660156 4.167969 L 13.644531 4.164062 C 13.515625 4.15625 13.386719 4.148438 13.253906 4.140625 C 13.164062 4.082031 13.085938 4.023438 13.011719 3.957031 L 13.011719 3.960938 C 12.714844 3.773438 11.949219 3.367188 11.730469 3.902344 C 11.589844 4.242188 11.9375 4.578125 12.058594 4.75 C 12.15625 4.863281 12.242188 4.992188 12.316406 5.125 L 12.324219 5.140625 C 12.359375 5.230469 12.371094 5.324219 12.40625 5.417969 C 12.5 5.699219 12.589844 5.929688 12.695312 6.15625 L 12.679688 6.117188 C 12.742188 6.242188 12.804688 6.347656 12.875 6.445312 L 12.871094 6.4375 C 12.914062 6.496094 12.984375 6.523438 13.003906 6.617188 C 12.949219 6.730469 12.90625 6.859375 12.882812 7 L 12.882812 7.007812 C 12.816406 7.214844 12.777344 7.453125 12.777344 7.703125 C 12.777344 8.089844 12.871094 8.457031 13.039062 8.777344 L 13.035156 8.765625 C 13.117188 8.894531 13.316406 9.179688 13.582031 9.070312 C 13.816406 8.976562 13.765625 8.679688 13.832031 8.417969 C 13.847656 8.355469 13.839844 8.316406 13.871094 8.273438 L 13.871094 8.285156 C 13.941406 8.433594 14.015625 8.570312 14.082031 8.71875 C 14.273438 8.992188 14.496094 9.222656 14.753906 9.414062 L 14.761719 9.417969 C 14.886719 9.511719 14.984375 9.675781 15.140625 9.730469 L 15.140625 9.714844 L 15.128906 9.714844 C 15.09375 9.675781 15.054688 9.644531 15.011719 9.613281 L 15.007812 9.613281 C 14.914062 9.515625 14.824219 9.414062 14.742188 9.308594 L 14.734375 9.300781 C 14.53125 9.023438 14.339844 8.714844 14.171875 8.386719 L 14.152344 8.347656 C 14.066406 8.183594 13.996094 8.007812 13.925781 7.847656 C 13.894531 7.785156 13.894531 7.691406 13.84375 7.660156 C 13.75 7.761719 13.667969 7.878906 13.597656 8.003906 L 13.59375 8.011719 C 13.511719 8.246094 13.460938 8.515625 13.445312 8.792969 L 13.445312 8.800781 C 13.425781 8.808594 13.4375 8.800781 13.425781 8.8125 C 13.257812 8.773438 13.199219 8.597656 13.136719 8.453125 C 13.054688 8.222656 13.003906 7.960938 13.003906 7.683594 C 13.003906 7.460938 13.035156 7.246094 13.09375 7.042969 L 13.09375 7.058594 C 13.128906 6.949219 13.285156 6.605469 13.222656 6.5 C 13.191406 6.402344 13.085938 6.34375 13.03125 6.261719 C 12.960938 6.167969 12.898438 6.058594 12.847656 5.941406 L 12.84375 5.929688 C 12.71875 5.636719 12.65625 5.3125 12.519531 5.023438 C 12.4375 4.871094 12.351562 4.738281 12.253906 4.617188 L 12.257812 4.621094 C 12.15625 4.5 12.058594 4.367188 11.976562 4.226562 L 11.96875 4.214844 C 11.945312 4.15625 11.90625 4.0625 11.949219 4 C 11.957031 3.964844 11.984375 3.9375 12.023438 3.929688 C 12.09375 3.875 12.285156 3.949219 12.351562 3.980469 C 12.550781 4.054688 12.722656 4.140625 12.878906 4.246094 L 12.871094 4.238281 C 12.941406 4.292969 13.023438 4.390625 13.117188 4.417969 L 13.226562 4.417969 C 13.390625 4.453125 13.582031 4.425781 13.738281 4.472656 C 14.023438 4.570312 14.273438 4.691406 14.5 4.839844 L 14.488281 4.832031 C 15.179688 5.277344 15.730469 5.878906 16.105469 6.59375 L 16.117188 6.617188 C 16.179688 6.738281 16.207031 6.847656 16.265625 6.972656 C 16.375 7.230469 16.507812 7.492188 16.621094 7.738281 C 16.726562 8.007812 16.851562 8.238281 17 8.453125 L 16.992188 8.441406 C 17.070312 8.550781 17.382812 8.605469 17.523438 8.664062 C 17.671875 8.714844 17.789062 8.765625 17.90625 8.820312 L 17.882812 8.8125 C 18.0625 8.921875 18.238281 9.046875 18.40625 9.164062 C 18.492188 9.222656 18.75 9.355469 18.765625 9.460938 Z M 11.4375 14.03125 C 11.4375 14.042969 11.4375 14.050781 11.4375 14.0625 C 11.4375 14.410156 11.285156 14.722656 11.039062 14.933594 L 11.035156 14.933594 C 10.765625 15.15625 10.417969 15.289062 10.039062 15.289062 C 10.007812 15.289062 9.980469 15.289062 9.949219 15.285156 L 9.953125 15.285156 C 9.492188 15.28125 9.066406 15.128906 8.71875 14.878906 L 8.726562 14.882812 L 8.910156 14.511719 C 9.179688 14.660156 9.496094 14.753906 9.835938 14.769531 L 9.839844 14.769531 C 9.855469 14.769531 9.875 14.769531 9.894531 14.769531 C 10.105469 14.769531 10.296875 14.703125 10.453125 14.59375 L 10.453125 14.597656 C 10.59375 14.488281 10.6875 14.316406 10.6875 14.125 C 10.6875 14.121094 10.6875 14.121094 10.6875 14.117188 C 10.6875 13.859375 10.507812 13.640625 10.179688 13.457031 C 9.875 13.289062 9.273438 12.941406 9.273438 12.941406 C 8.972656 12.757812 8.777344 12.433594 8.777344 12.0625 C 8.777344 12.046875 8.777344 12.035156 8.777344 12.023438 C 8.777344 12.011719 8.777344 12 8.777344 11.984375 C 8.777344 11.664062 8.917969 11.375 9.144531 11.175781 C 9.382812 10.972656 9.695312 10.851562 10.035156 10.851562 C 10.058594 10.851562 10.078125 10.851562 10.101562 10.851562 L 10.097656 10.851562 C 10.101562 10.851562 10.109375 10.851562 10.117188 10.851562 C 10.515625 10.851562 10.886719 10.972656 11.199219 11.175781 L 11.191406 11.171875 L 11.023438 11.542969 C 10.78125 11.433594 10.496094 11.367188 10.195312 11.363281 C 10.179688 11.363281 10.160156 11.363281 10.144531 11.363281 C 9.96875 11.363281 9.808594 11.425781 9.683594 11.527344 C 9.566406 11.625 9.488281 11.769531 9.488281 11.933594 C 9.488281 12.191406 9.671875 12.410156 10.007812 12.597656 C 10.316406 12.765625 10.9375 13.121094 10.9375 13.121094 C 11.242188 13.300781 11.441406 13.628906 11.441406 14 C 11.441406 14.011719 11.441406 14.023438 11.441406 14.035156 Z M 12.734375 14.363281 C 12.5625 14.023438 12.464844 13.621094 12.464844 13.199219 C 12.464844 13.132812 12.464844 13.066406 12.472656 13 L 12.46875 13.007812 C 12.46875 11.921875 12.800781 11.375 13.460938 11.375 C 13.480469 11.375 13.5 11.375 13.519531 11.375 C 13.816406 11.375 14.074219 11.53125 14.222656 11.761719 L 14.226562 11.765625 C 14.394531 12.105469 14.496094 12.503906 14.496094 12.925781 C 14.496094 12.992188 14.492188 13.058594 14.488281 13.121094 L 14.488281 13.113281 C 14.488281 14.207031 14.15625 14.757812 13.496094 14.757812 C 13.480469 14.757812 13.460938 14.761719 13.441406 14.761719 C 13.144531 14.761719 12.882812 14.605469 12.734375 14.371094 Z M 15.304688 15.335938 L 14.511719 14.945312 C 14.582031 14.882812 14.648438 14.820312 14.707031 14.75 L 14.710938 14.75 C 15.03125 14.316406 15.222656 13.773438 15.222656 13.183594 C 15.222656 13.113281 15.222656 13.046875 15.214844 12.980469 L 15.21875 12.988281 C 15.21875 11.558594 14.65625 10.84375 13.535156 10.84375 C 13.507812 10.84375 13.480469 10.84375 13.449219 10.84375 C 12.96875 10.84375 12.539062 11.054688 12.246094 11.386719 L 12.246094 11.390625 C 11.925781 11.820312 11.734375 12.367188 11.734375 12.953125 C 11.734375 13.019531 11.738281 13.085938 11.742188 13.152344 L 11.742188 13.140625 C 11.734375 13.207031 11.734375 13.28125 11.734375 13.355469 C 11.734375 13.898438 11.902344 14.40625 12.195312 14.820312 L 12.1875 14.8125 C 12.46875 15.113281 12.867188 15.296875 13.308594 15.296875 C 13.351562 15.296875 13.390625 15.296875 13.429688 15.292969 L 13.425781 15.292969 C 13.429688 15.292969 13.4375 15.292969 13.445312 15.292969 C 13.640625 15.292969 13.828125 15.265625 14.003906 15.214844 L 13.992188 15.21875 L 15.027344 15.820312 L 15.308594 15.335938 Z M 17.898438 15.230469 L 15.84375 15.230469 L 15.84375 10.910156 L 16.535156 10.910156 L 16.535156 14.699219 L 17.898438 14.699219 Z M 8.273438 12.042969 C 8.09375 13.34375 7.683594 14.519531 7.082031 15.574219 L 7.105469 15.527344 C 6.867188 15.988281 6.410156 16.3125 5.875 16.363281 L 5.871094 16.363281 C 5.707031 16.355469 5.558594 16.316406 5.421875 16.253906 L 5.429688 16.257812 L 5.429688 15.871094 C 5.515625 15.882812 5.613281 15.890625 5.714844 15.890625 C 5.71875 15.890625 5.722656 15.890625 5.730469 15.890625 C 5.738281 15.890625 5.75 15.890625 5.761719 15.890625 C 5.941406 15.890625 6.109375 15.828125 6.234375 15.71875 C 6.371094 15.605469 6.460938 15.4375 6.464844 15.246094 C 6.433594 14.972656 6.371094 14.722656 6.277344 14.484375 L 6.285156 14.507812 L 5.496094 12.042969 L 6.203125 12.042969 L 6.773438 13.886719 C 6.875 14.144531 6.933594 14.445312 6.933594 14.761719 C 7.234375 13.972656 7.464844 13.054688 7.578125 12.097656 L 7.585938 12.042969 Z M 5.132812 15.230469 L 4.410156 15.230469 C 4.390625 14.078125 4.320312 12.929688 4.199219 11.785156 L 4.195312 11.785156 L 3.09375 15.230469 L 2.542969 15.230469 L 1.449219 11.785156 L 1.441406 11.785156 C 1.355469 12.929688 1.304688 14.078125 1.289062 15.230469 L 0.628906 15.230469 C 0.671875 13.691406 0.777344 12.253906 0.949219 10.910156 L 1.847656 10.910156 L 2.890625 14.082031 L 2.894531 14.082031 L 3.945312 10.910156 L 4.800781 10.910156 C 4.992188 12.484375 5.101562 13.921875 5.136719 15.230469 Z M 13.441406 4.925781 C 13.4375 4.925781 13.4375 4.925781 13.4375 4.925781 C 13.359375 4.925781 13.289062 4.933594 13.21875 4.953125 L 13.226562 4.949219 L 13.226562 4.960938 L 13.238281 4.960938 C 13.292969 5.039062 13.347656 5.109375 13.40625 5.175781 L 13.40625 5.171875 C 13.445312 5.257812 13.484375 5.339844 13.523438 5.421875 L 13.535156 5.410156 C 13.601562 5.359375 13.644531 5.273438 13.644531 5.183594 C 13.644531 5.171875 13.644531 5.160156 13.644531 5.148438 L 13.644531 5.152344 C 13.613281 5.113281 13.609375 5.078125 13.582031 5.042969 C 13.550781 4.988281 13.484375 4.964844 13.441406 4.921875 Z M 13.441406 4.925781 "/>
</g>
</svg>
