<?xml version="1.0" encoding="UTF-8"?>
<svg xmlns="http://www.w3.org/2000/svg" xmlns:xlink="http://www.w3.org/1999/xlink" width="20px" height="20px" viewBox="0 0 20 20" version="1.1">
<defs>
<linearGradient id="linear0" gradientUnits="userSpaceOnUse" x1="-133.268" y1="-202.91" x2="-133.198" y2="-202.84" gradientTransform="matrix(118.3625,0,0,118.63125,15776.913125,24074.48125)">
<stop offset="0" style="stop-color:rgb(21.960784%,49.411765%,72.156863%);stop-opacity:1;"/>
<stop offset="1" style="stop-color:rgb(21.176471%,41.176471%,58.039216%);stop-opacity:1;"/>
</linearGradient>
<linearGradient id="linear1" gradientUnits="userSpaceOnUse" x1="-133.575" y1="-203.203" x2="-133.495" y2="-203.133" gradientTransform="matrix(118.3625,0,0,118.63125,15818.163125,24114.6375)">
<stop offset="0" style="stop-color:rgb(100%,87.843137%,32.156863%);stop-opacity:1;"/>
<stop offset="1" style="stop-color:rgb(100%,76.470588%,19.215686%);stop-opacity:1;"/>
</linearGradient>
</defs>
<g id="surface1">
<path style=" stroke:none;fill-rule:nonzero;fill:url(#linear0);" d="M 9.929688 1.3125 C 5.492188 1.3125 5.769531 3.230469 5.769531 3.230469 L 5.769531 5.226562 L 9.992188 5.226562 L 9.992188 5.851562 L 4.089844 5.851562 C 4.089844 5.851562 1.25 5.5 1.25 10.003906 C 1.25 14.507812 3.757812 14.324219 3.757812 14.324219 L 5.207031 14.324219 L 5.207031 12.222656 C 5.207031 12.222656 5.125 9.714844 7.644531 9.714844 L 11.871094 9.714844 C 11.871094 9.714844 14.226562 9.75 14.226562 7.433594 L 14.226562 3.625 C 14.226562 3.625 14.585938 1.304688 9.953125 1.304688 Z M 7.59375 2.648438 C 8.015625 2.636719 8.363281 2.96875 8.375 3.386719 C 8.382812 3.804688 8.054688 4.15625 7.632812 4.164062 C 7.214844 4.175781 6.867188 3.84375 6.855469 3.425781 L 6.855469 3.414062 C 6.855469 2.992188 7.195312 2.65625 7.613281 2.65625 Z M 7.59375 2.648438 "/>
<path style=" stroke:none;fill-rule:nonzero;fill:url(#linear1);" d="M 10.054688 18.695312 C 14.492188 18.695312 14.210938 16.769531 14.210938 16.769531 L 14.210938 14.78125 L 9.992188 14.78125 L 9.992188 14.15625 L 15.910156 14.15625 C 15.910156 14.15625 18.75 14.472656 18.75 9.996094 C 18.75 5.519531 16.242188 5.675781 16.242188 5.675781 L 14.773438 5.675781 L 14.773438 7.75 C 14.773438 7.75 14.855469 10.257812 12.335938 10.257812 L 8.109375 10.257812 C 8.109375 10.257812 5.75 10.222656 5.75 12.542969 L 5.75 16.375 C 5.75 16.375 5.390625 18.695312 10.027344 18.695312 Z M 12.386719 17.351562 C 11.964844 17.363281 11.617188 17.03125 11.609375 16.613281 C 11.597656 16.195312 11.929688 15.84375 12.347656 15.835938 C 12.765625 15.824219 13.113281 16.15625 13.125 16.574219 L 13.125 16.59375 C 13.125 17.011719 12.785156 17.351562 12.367188 17.351562 Z M 12.386719 17.351562 "/>
</g>
</svg>
