<?xml version="1.0" encoding="UTF-8"?>
<svg xmlns="http://www.w3.org/2000/svg" xmlns:xlink="http://www.w3.org/1999/xlink" width="20px" height="20px" viewBox="0 0 20 20" version="1.1">
<g id="surface1">
<path style=" stroke:none;fill-rule:nonzero;fill:rgb(56.862745%,14.901961%,14.901961%);fill-opacity:1;" d="M 19.214844 14.605469 C 18.148438 15.160156 12.621094 17.433594 11.441406 18.046875 C 10.265625 18.660156 9.613281 18.65625 8.683594 18.210938 C 7.753906 17.765625 1.867188 15.390625 0.808594 14.882812 C 0.277344 14.628906 0 14.417969 0 14.214844 L 0 12.195312 C 0 12.195312 7.660156 10.527344 8.898438 10.082031 C 10.132812 9.636719 10.5625 9.621094 11.613281 10.007812 C 12.667969 10.394531 18.960938 11.527344 20 11.910156 C 20 11.910156 20 13.714844 20 13.902344 C 20 14.101562 19.757812 14.320312 19.214844 14.605469 "/>
<path style=" stroke:none;fill-rule:nonzero;fill:rgb(77.647059%,18.823529%,16.862745%);fill-opacity:1;" d="M 19.214844 12.59375 C 18.148438 13.152344 12.621094 15.425781 11.441406 16.039062 C 10.265625 16.652344 9.613281 16.644531 8.683594 16.203125 C 7.753906 15.757812 1.867188 13.378906 0.808594 12.875 C -0.25 12.367188 -0.273438 12.019531 0.769531 11.609375 C 1.808594 11.203125 7.660156 8.90625 8.898438 8.464844 C 10.132812 8.019531 10.5625 8.003906 11.613281 8.390625 C 12.667969 8.773438 18.164062 10.964844 19.203125 11.34375 C 20.242188 11.726562 20.285156 12.039062 19.214844 12.59375 "/>
<path style=" stroke:none;fill-rule:nonzero;fill:rgb(56.862745%,14.901961%,14.901961%);fill-opacity:1;" d="M 19.214844 11.332031 C 18.148438 11.890625 12.621094 14.164062 11.441406 14.777344 C 10.265625 15.390625 9.613281 15.386719 8.683594 14.941406 C 7.753906 14.496094 1.867188 12.121094 0.808594 11.613281 C 0.277344 11.359375 0 11.144531 0 10.945312 L 0 8.921875 C 0 8.921875 7.660156 7.253906 8.898438 6.8125 C 10.132812 6.367188 10.5625 6.351562 11.613281 6.738281 C 12.667969 7.121094 18.960938 8.257812 20 8.636719 C 20 8.636719 20 10.445312 20 10.632812 C 20 10.832031 19.757812 11.050781 19.214844 11.332031 "/>
<path style=" stroke:none;fill-rule:nonzero;fill:rgb(77.647059%,18.823529%,16.862745%);fill-opacity:1;" d="M 19.214844 9.324219 C 18.148438 9.878906 12.621094 12.152344 11.441406 12.769531 C 10.265625 13.382812 9.613281 13.375 8.683594 12.929688 C 7.753906 12.488281 1.867188 10.109375 0.808594 9.601562 C -0.25 9.097656 -0.273438 8.746094 0.769531 8.339844 C 1.808594 7.933594 7.660156 5.636719 8.898438 5.191406 C 10.132812 4.75 10.5625 4.734375 11.613281 5.117188 C 12.667969 5.503906 18.164062 7.691406 19.203125 8.074219 C 20.242188 8.453125 20.285156 8.769531 19.214844 9.324219 "/>
<path style=" stroke:none;fill-rule:nonzero;fill:rgb(56.862745%,14.901961%,14.901961%);fill-opacity:1;" d="M 19.214844 7.941406 C 18.148438 8.496094 12.621094 10.769531 11.441406 11.386719 C 10.265625 12 9.613281 11.992188 8.683594 11.546875 C 7.753906 11.105469 1.867188 8.726562 0.808594 8.21875 C 0.277344 7.96875 0 7.753906 0 7.550781 L 0 5.53125 C 0 5.53125 7.660156 3.863281 8.898438 3.417969 C 10.132812 2.976562 10.5625 2.960938 11.613281 3.34375 C 12.667969 3.730469 18.960938 4.867188 20 5.246094 C 20 5.246094 20 7.050781 20 7.238281 C 20 7.4375 19.757812 7.660156 19.214844 7.941406 "/>
<path style=" stroke:none;fill-rule:nonzero;fill:rgb(77.647059%,18.823529%,16.862745%);fill-opacity:1;" d="M 19.214844 5.933594 C 18.148438 6.488281 12.621094 8.761719 11.441406 9.375 C 10.265625 9.988281 9.613281 9.984375 8.683594 9.539062 C 7.753906 9.09375 1.867188 6.71875 0.808594 6.210938 C -0.25 5.703125 -0.273438 5.355469 0.769531 4.949219 C 1.808594 4.539062 7.660156 2.246094 8.898438 1.800781 C 10.132812 1.355469 10.5625 1.339844 11.613281 1.726562 C 12.667969 2.113281 18.164062 4.300781 19.203125 4.679688 C 20.242188 5.0625 20.285156 5.375 19.214844 5.933594 "/>
<path style=" stroke:none;fill-rule:nonzero;fill:rgb(100%,100%,100%);fill-opacity:1;" d="M 12.445312 3.964844 L 10.722656 4.144531 L 10.339844 5.070312 L 9.71875 4.035156 L 7.730469 3.859375 L 9.214844 3.324219 L 8.769531 2.503906 L 10.15625 3.046875 L 11.464844 2.617188 L 11.109375 3.464844 L 12.445312 3.964844 "/>
<path style=" stroke:none;fill-rule:nonzero;fill:rgb(100%,100%,100%);fill-opacity:1;" d="M 10.238281 8.457031 L 7.027344 7.128906 L 11.625 6.421875 L 10.238281 8.457031 "/>
<path style=" stroke:none;fill-rule:nonzero;fill:rgb(100%,100%,100%);fill-opacity:1;" d="M 5.789062 4.480469 C 7.144531 4.480469 8.246094 4.90625 8.246094 5.433594 C 8.246094 5.960938 7.144531 6.386719 5.789062 6.386719 C 4.429688 6.386719 3.328125 5.960938 3.328125 5.433594 C 3.328125 4.90625 4.429688 4.480469 5.789062 4.480469 "/>
<path style=" stroke:none;fill-rule:nonzero;fill:rgb(38.431373%,10.588235%,10.980392%);fill-opacity:1;" d="M 14.476562 4.21875 L 17.199219 5.292969 L 14.476562 6.367188 L 14.476562 4.21875 "/>
<path style=" stroke:none;fill-rule:nonzero;fill:rgb(60.392157%,16.078431%,15.686275%);fill-opacity:1;" d="M 11.464844 5.410156 L 14.476562 4.21875 L 14.476562 6.367188 L 14.183594 6.484375 L 11.464844 5.410156 "/>
</g>
</svg>
