<?xml version="1.0" encoding="UTF-8"?>
<svg xmlns="http://www.w3.org/2000/svg" xmlns:xlink="http://www.w3.org/1999/xlink" width="20px" height="20px" viewBox="0 0 20 20" version="1.1">
<g id="surface1">
<path style=" stroke:none;fill-rule:nonzero;fill:rgb(0%,0%,0%);fill-opacity:1;" d="M 10 0 C 4.476562 0 0 4.476562 0 10 C 0 15.523438 4.476562 20 10 20 C 15.523438 20 20 15.523438 20 10 C 20 9.058594 19.867188 8.121094 19.605469 7.214844 C 19.503906 6.964844 19.226562 6.84375 18.972656 6.933594 C 18.722656 7.027344 18.585938 7.300781 18.667969 7.554688 L 18.664062 7.554688 C 18.886719 8.339844 19 9.160156 19 10 C 19.007812 12.386719 18.058594 14.679688 16.363281 16.363281 C 14.679688 18.058594 12.386719 19.007812 10 19 C 7.613281 19.007812 5.320312 18.058594 3.636719 16.363281 C 1.941406 14.679688 0.992188 12.386719 1 10 C 0.992188 7.613281 1.941406 5.320312 3.636719 3.636719 C 5.320312 1.941406 7.613281 0.992188 10 1 C 12.148438 1 14.175781 1.746094 15.796875 3.117188 C 15.585938 3.652344 15.777344 4.261719 16.257812 4.582031 C 16.738281 4.902344 17.375 4.839844 17.789062 4.4375 C 18.199219 4.039062 18.277344 3.402344 17.96875 2.914062 C 17.664062 2.425781 17.058594 2.21875 16.515625 2.417969 C 14.703125 0.855469 12.390625 -0.00390625 10 0 Z M 8.800781 4.898438 L 5.300781 13.984375 L 7.492188 13.984375 L 8.0625 12.445312 L 11.371094 12.445312 L 10.773438 10.742188 L 8.59375 10.742188 L 10.011719 6.835938 L 12.53125 13.984375 L 14.722656 13.984375 L 11.226562 4.898438 Z M 8.800781 4.898438 "/>
</g>
</svg>
