<?xml version="1.0" encoding="UTF-8"?>
<svg xmlns="http://www.w3.org/2000/svg" xmlns:xlink="http://www.w3.org/1999/xlink" width="20px" height="20px" viewBox="0 0 20 20" version="1.1">
<g id="surface1">
<path style=" stroke:none;fill-rule:nonzero;fill:rgb(34.509804%,39.607843%,94.901961%);fill-opacity:1;" d="M 20 10 C 20 15.523438 15.523438 20 10 20 C 4.476562 20 0 15.523438 0 10 C 0 4.476562 4.476562 0 10 0 C 15.523438 0 20 4.476562 20 10 Z M 20 10 "/>
<path style=" stroke:none;fill-rule:nonzero;fill:rgb(100%,100%,100%);fill-opacity:1;" d="M 13.464844 6.816406 C 12.816406 6.519531 12.132812 6.304688 11.429688 6.183594 C 11.417969 6.183594 11.402344 6.1875 11.398438 6.199219 C 11.304688 6.371094 11.21875 6.542969 11.144531 6.722656 C 10.386719 6.605469 9.613281 6.605469 8.855469 6.722656 C 8.78125 6.542969 8.695312 6.371094 8.601562 6.199219 C 8.59375 6.1875 8.578125 6.183594 8.566406 6.183594 C 7.863281 6.304688 7.179688 6.519531 6.53125 6.816406 C 6.527344 6.820312 6.523438 6.824219 6.519531 6.828125 C 5.222656 8.765625 4.867188 10.652344 5.042969 12.519531 C 5.042969 12.527344 5.046875 12.539062 5.054688 12.542969 C 5.808594 13.101562 6.652344 13.527344 7.550781 13.804688 C 7.566406 13.808594 7.578125 13.804688 7.585938 13.792969 C 7.78125 13.53125 7.949219 13.253906 8.097656 12.964844 C 8.101562 12.953125 8.101562 12.945312 8.097656 12.9375 C 8.09375 12.929688 8.089844 12.921875 8.078125 12.917969 C 7.8125 12.816406 7.550781 12.691406 7.300781 12.546875 C 7.289062 12.542969 7.285156 12.53125 7.285156 12.523438 C 7.285156 12.511719 7.289062 12.5 7.296875 12.496094 C 7.347656 12.457031 7.402344 12.414062 7.453125 12.375 C 7.460938 12.367188 7.472656 12.363281 7.484375 12.367188 C 9.121094 13.117188 10.890625 13.117188 12.507812 12.367188 C 12.519531 12.363281 12.53125 12.367188 12.542969 12.371094 C 12.59375 12.414062 12.644531 12.457031 12.699219 12.496094 C 12.707031 12.5 12.710938 12.511719 12.710938 12.523438 C 12.710938 12.53125 12.703125 12.542969 12.695312 12.546875 C 12.445312 12.691406 12.183594 12.816406 11.914062 12.917969 C 11.90625 12.921875 11.898438 12.929688 11.894531 12.9375 C 11.894531 12.945312 11.894531 12.957031 11.898438 12.964844 C 12.046875 13.253906 12.21875 13.53125 12.40625 13.792969 C 12.414062 13.804688 12.429688 13.808594 12.441406 13.804688 C 13.34375 13.53125 14.1875 13.101562 14.941406 12.542969 C 14.949219 12.539062 14.957031 12.53125 14.957031 12.519531 C 15.164062 10.363281 14.605469 8.488281 13.476562 6.828125 C 13.476562 6.824219 13.472656 6.820312 13.464844 6.816406 Z M 8.339844 11.382812 C 7.847656 11.382812 7.441406 10.929688 7.441406 10.375 C 7.441406 9.820312 7.839844 9.367188 8.339844 9.367188 C 8.847656 9.367188 9.25 9.824219 9.238281 10.375 C 9.242188 10.929688 8.84375 11.382812 8.339844 11.382812 Z M 11.664062 11.382812 C 11.171875 11.382812 10.765625 10.929688 10.765625 10.375 C 10.765625 9.820312 11.164062 9.367188 11.664062 9.367188 C 12.167969 9.367188 12.570312 9.824219 12.5625 10.375 C 12.5625 10.929688 12.167969 11.382812 11.664062 11.382812 Z M 11.664062 11.382812 "/>
</g>
</svg>
