<?xml version="1.0" encoding="UTF-8"?>
<svg xmlns="http://www.w3.org/2000/svg" xmlns:xlink="http://www.w3.org/1999/xlink" width="20px" height="20px" viewBox="0 0 20 20" version="1.1">
<g id="surface1">
<path style=" stroke:none;fill-rule:nonzero;fill:rgb(60%,25.882353%,35.686275%);fill-opacity:1;" d="M 16.929688 9.867188 C 16.929688 8.964844 16.203125 8.238281 15.300781 8.238281 C 15.242188 8.238281 15.1875 8.242188 15.128906 8.246094 L 17.367188 1.648438 L 7.859375 1.648438 L 10.09375 8.242188 C 10.0625 8.242188 10.027344 8.238281 9.996094 8.238281 C 9.191406 8.238281 8.511719 8.824219 8.386719 9.617188 C 8.265625 10.410156 8.734375 11.175781 9.5 11.417969 C 9.152344 12.015625 8.722656 12.558594 8.21875 13.03125 C 7.566406 13.65625 6.789062 14.136719 5.9375 14.449219 C 4.949219 13.976562 4.492188 12.820312 4.898438 11.804688 C 4.945312 11.691406 4.992188 11.578125 5.039062 11.464844 C 5.789062 11.289062 6.3125 10.613281 6.296875 9.84375 C 6.28125 9.074219 5.730469 8.421875 4.972656 8.277344 C 4.21875 8.132812 3.464844 8.535156 3.164062 9.242188 C 2.867188 9.953125 3.105469 10.773438 3.734375 11.214844 C 3.214844 12.15625 2.816406 13.164062 2.554688 14.207031 C 2.332031 15.539062 2.554688 16.957031 3.707031 17.757812 C 6.394531 19.621094 9.3125 16.601562 12.390625 15.84375 C 13.503906 15.570312 14.726562 15.613281 15.710938 15.042969 C 16.429688 14.636719 16.925781 13.925781 17.070312 13.113281 C 17.203125 12.339844 17.015625 11.546875 16.550781 10.914062 C 16.796875 10.621094 16.929688 10.25 16.929688 9.867188 Z M 11.625 9.875 L 11.625 9.871094 C 11.625 9.300781 11.328125 8.769531 10.839844 8.476562 L 12.617188 4.875 L 14.398438 8.507812 C 13.945312 8.808594 13.671875 9.320312 13.671875 9.863281 C 13.671875 9.875 13.671875 9.886719 13.671875 9.898438 Z M 11.625 9.875 "/>
<path style=" stroke:none;fill-rule:nonzero;fill:rgb(100%,100%,100%);fill-opacity:1;" d="M 17.328125 9.867188 C 17.328125 8.890625 16.632812 8.054688 15.675781 7.875 L 17.921875 1.25 L 7.304688 1.25 L 9.554688 7.886719 C 8.75 8.066406 8.136719 8.714844 8 9.527344 C 7.859375 10.339844 8.226562 11.152344 8.925781 11.585938 C 8.644531 12.007812 8.316406 12.394531 7.949219 12.742188 C 7.375 13.285156 6.707031 13.71875 5.972656 14.011719 C 5.261719 13.597656 4.960938 12.722656 5.265625 11.960938 L 5.289062 11.902344 L 5.335938 11.792969 C 6.191406 11.496094 6.746094 10.667969 6.695312 9.761719 C 6.644531 8.859375 6 8.097656 5.117188 7.898438 C 4.234375 7.699219 3.324219 8.109375 2.890625 8.90625 C 2.457031 9.699219 2.601562 10.683594 3.246094 11.320312 C 3.179688 11.464844 3.109375 11.609375 3.035156 11.761719 C 2.628906 12.507812 2.335938 13.308594 2.160156 14.136719 C 1.871094 15.886719 2.339844 17.289062 3.480469 18.078125 C 4.09375 18.519531 4.828125 18.753906 5.582031 18.75 C 6.917969 18.75 8.265625 18.082031 9.582031 17.425781 C 10.503906 16.925781 11.476562 16.523438 12.484375 16.226562 C 12.855469 16.140625 13.230469 16.074219 13.609375 16.027344 C 14.410156 15.964844 15.191406 15.746094 15.910156 15.386719 C 16.730469 14.917969 17.300781 14.109375 17.464844 13.179688 C 17.597656 12.398438 17.445312 11.597656 17.03125 10.921875 C 17.226562 10.605469 17.328125 10.238281 17.328125 9.867188 Z M 16.53125 9.867188 C 16.53125 10.546875 15.980469 11.097656 15.300781 11.097656 C 14.621094 11.097656 14.070312 10.546875 14.070312 9.867188 C 14.070312 9.1875 14.621094 8.636719 15.300781 8.636719 C 15.980469 8.636719 16.53125 9.1875 16.53125 9.867188 Z M 16.8125 2.046875 L 14.828125 7.894531 C 14.742188 7.917969 14.660156 7.941406 14.578125 7.972656 L 12.621094 3.972656 L 10.652344 7.949219 C 10.566406 7.921875 10.480469 7.898438 10.390625 7.878906 L 8.414062 2.046875 Z M 9.996094 8.636719 C 10.675781 8.636719 11.226562 9.1875 11.226562 9.867188 C 11.226562 10.546875 10.675781 11.097656 9.996094 11.097656 C 9.316406 11.097656 8.765625 10.546875 8.765625 9.867188 C 8.765625 9.1875 9.316406 8.636719 9.996094 8.636719 Z M 4.667969 8.648438 C 5.347656 8.648438 5.898438 9.199219 5.898438 9.878906 C 5.898438 10.558594 5.347656 11.109375 4.667969 11.109375 C 3.988281 11.109375 3.4375 10.558594 3.4375 9.878906 C 3.4375 9.199219 3.988281 8.648438 4.667969 8.648438 Z M 16.679688 13.042969 C 16.554688 13.742188 16.125 14.347656 15.511719 14.695312 C 14.878906 15.003906 14.195312 15.1875 13.496094 15.242188 C 13.101562 15.296875 12.691406 15.355469 12.292969 15.453125 C 11.230469 15.761719 10.203125 16.183594 9.230469 16.714844 C 7.253906 17.695312 5.542969 18.542969 3.9375 17.425781 C 2.757812 16.609375 2.8125 15.097656 2.949219 14.269531 C 3.109375 13.515625 3.378906 12.785156 3.75 12.109375 C 3.808594 11.992188 3.863281 11.875 3.917969 11.761719 C 4.085938 11.828125 4.261719 11.871094 4.441406 11.890625 C 4.113281 13.050781 4.667969 14.28125 5.753906 14.800781 L 5.90625 14.878906 L 6.070312 14.820312 C 6.972656 14.496094 7.796875 13.984375 8.492188 13.320312 C 8.949219 12.890625 9.355469 12.402344 9.691406 11.871094 C 10.578125 12.007812 11.449219 11.542969 11.828125 10.730469 C 12.210938 9.917969 12.011719 8.949219 11.339844 8.355469 L 12.613281 5.78125 L 13.902344 8.40625 C 13.144531 9.136719 13.070312 10.328125 13.738281 11.144531 C 14.40625 11.960938 15.589844 12.128906 16.457031 11.53125 C 16.6875 11.996094 16.765625 12.527344 16.679688 13.042969 Z M 16.679688 13.042969 "/>
</g>
</svg>
