<?xml version="1.0" encoding="UTF-8"?>
<svg xmlns="http://www.w3.org/2000/svg" xmlns:xlink="http://www.w3.org/1999/xlink" width="20px" height="20px" viewBox="0 0 20 20" version="1.1">
<g id="surface1">
<path style=" stroke:none;fill-rule:nonzero;fill:rgb(91.764706%,40%,9.411765%);fill-opacity:1;" d="M 20 18.46875 L 20 1.53125 C 20 0.835938 19.539062 0.25 18.902344 0.0625 L 18.183594 0.492188 L 10.195312 9.011719 L 9.945312 9.796875 L 9.796875 10.546875 L 12.289062 19.859375 L 12.675781 20 L 18.46875 20 C 19.3125 20 20 19.3125 20 18.46875 "/>
<path style=" stroke:none;fill-rule:nonzero;fill:rgb(83.921569%,34.509804%,7.45098%);fill-opacity:1;" d="M 0 1.53125 L 0 18.46875 C 0 18.992188 0.261719 19.453125 0.664062 19.730469 L 1.15625 19.496094 L 9.613281 10.441406 L 9.945312 9.796875 L 9.957031 9.171875 L 7.65625 0.414062 L 7.304688 0 L 1.53125 0 C 0.6875 0 0 0.6875 0 1.53125 "/>
<path style=" stroke:none;fill-rule:nonzero;fill:rgb(87.843137%,36.862745%,6.666667%);fill-opacity:1;" d="M 9.945312 9.796875 L 18.902344 0.0625 C 18.765625 0.0234375 18.621094 0 18.46875 0 L 7.304688 0 Z M 9.945312 9.796875 "/>
<path style=" stroke:none;fill-rule:nonzero;fill:rgb(87.058824%,36.078431%,8.627451%);fill-opacity:1;" d="M 1.53125 20 L 12.675781 20 L 9.945312 9.796875 L 0.664062 19.730469 C 0.910156 19.898438 1.210938 20 1.53125 20 "/>
<path style=" stroke:none;fill-rule:nonzero;fill:rgb(100%,100%,100%);fill-opacity:1;" d="M 7.414062 7.582031 L 8.527344 7.582031 C 8.96875 9.25 9.472656 10.71875 10.035156 12.039062 C 10.671875 10.550781 11.140625 9.085938 11.535156 7.582031 L 12.585938 7.582031 C 12.113281 9.449219 11.34375 11.332031 10.464844 13.277344 L 9.535156 13.277344 C 8.691406 11.433594 7.972656 9.539062 7.414062 7.582031 Z M 3.75 4.683594 L 6.222656 4.683594 L 6.222656 15.28125 L 3.738281 15.28125 L 3.738281 14.464844 L 5.261719 14.464844 L 5.261719 5.480469 L 3.75 5.480469 Z M 16.261719 5.480469 L 14.753906 5.480469 L 14.753906 14.464844 L 16.273438 14.464844 L 16.273438 15.28125 L 13.792969 15.28125 L 13.792969 4.683594 L 16.261719 4.683594 Z M 16.261719 5.480469 "/>
</g>
</svg>
